<svg width="60px" height="80px" viewBox="0 0 60 80" version="1.1" xmlns="http://www.w3.org/2000/svg" xmlns:xlink="http://www.w3.org/1999/xlink">
    <g id="Welcome" stroke="none" stroke-width="1" fill="none" fill-rule="evenodd">
        <g id="Blog" transform="translate(-21.000000, -14.000000)" fill="#000000" fill-rule="nonzero">
            <g id="skull" transform="translate(21.000000, 14.000000)">
                <path d="M48.7471341,56 C48.055218,56 47.4942681,56.505942 47.4942681,57.1300073 L47.4942681,65.9535567 C47.4942681,67.699192 46.6647038,69.3655762 45.2182284,70.5251144 L38.1462178,76.1948886 C36.9033748,77.1912537 35.3033815,77.7399853 33.6405778,77.7399853 L26.3594222,77.7399853 C24.6967856,77.7399853 23.0967922,77.1912537 21.8539492,76.1950393 L14.7817716,70.5252651 C13.3352962,69.3655762 12.5057319,67.699192 12.5057319,65.9535567 L12.5057319,57.130158 C12.5057319,56.5060926 11.944782,56 11.2528659,56 C10.5609498,56 10,56.5060926 10,57.130158 L10,65.9535567 C10,68.3442002 11.1360988,70.6262124 13.1172975,72.2144001 L20.1894751,77.8841742 C21.8912011,79.2486204 24.0825472,80 26.3594222,80 L33.6405778,80 C35.9176199,80 38.1089659,79.2486204 39.810859,77.8841742 L46.8828696,72.2144001 C48.8637341,70.6262124 50,68.3443509 50,65.9537074 L50,57.130158 C50,56.505942 49.4390502,56 48.7471341,56 Z" id="Path"></path>
                <path d="M35.7894938,50.4282961 L32.7266825,43.637069 C32.2781106,42.6425963 31.2078849,42 30.0000858,42 C28.7922866,42 27.7220609,42.6425963 27.273489,43.637069 L24.2105062,50.4282961 C23.8480464,51.2316937 23.9583453,52.1391481 24.5052085,52.8556795 C25.0522432,53.572211 25.9612232,54 26.9369314,54 L33.0630686,54 C34.0387768,54 34.9477568,53.572211 35.4947915,52.8556795 C36.0416547,52.1391481 36.1519536,51.2316937 35.7894938,50.4282961 Z M33.3641178,51.5762677 C33.3238064,51.6292089 33.2310043,51.7179006 33.0630686,51.7179006 L26.9369314,51.7179006 C26.7689957,51.7179006 26.6761936,51.6292089 26.6358822,51.5762677 C26.5955708,51.5233266 26.5370763,51.4139452 26.5993446,51.2758114 L29.6623274,44.4845842 C29.7378041,44.3170892 29.8873853,44.2819473 29.9997427,44.2819473 C30.1121001,44.2819473 30.2616812,44.3170892 30.3373295,44.4845842 L33.4003123,51.2758114 C33.4630952,51.4139452 33.4046008,51.5233266 33.3641178,51.5762677 Z" id="Shape"></path>
                <path d="M30,0 C13.4579424,0 0,12.8930749 0,28.740816 C0,33.7337815 1.35775475,38.6443645 3.92396182,42.9565421 L3.92396182,47.5372831 C3.92396182,50.2566828 6.23317288,52.4689698 9.07171412,52.4689698 L15.6118137,52.4689698 C15.6583177,52.4689698 15.6960104,52.5050805 15.6960104,52.5496326 L15.6960104,60.0683133 C15.6960104,61.4058152 16.831688,62.4938252 18.2277882,62.4938252 L20.9279595,62.4938252 L20.9279595,63.8275754 C20.9279595,64.4750664 21.4758913,65 22.15175,65 C22.8276087,65 23.3755405,64.4750664 23.3755405,63.8275754 L23.3755405,62.4938252 L26.1599086,62.4938252 L26.1599086,63.8275754 C26.1599086,64.4750664 26.7078404,65 27.3836991,65 C28.0595578,65 28.6074896,64.4750664 28.6074896,63.8275754 L28.6074896,62.4938252 L31.3918577,62.4938252 L31.3918577,63.8275754 C31.3918577,64.4750664 31.9397895,65 32.6156482,65 C33.2915069,65 33.8394387,64.4750664 33.8394387,63.8275754 L33.8394387,62.4938252 L36.6238068,62.4938252 L36.6238068,63.8275754 C36.6238068,64.4750664 37.1717386,65 37.8475973,65 C38.523456,65 39.0713878,64.4750664 39.0713878,63.8275754 L39.0713878,62.4938252 L41.7715591,62.4938252 C43.1676593,62.4938252 44.3033369,61.4058152 44.3033369,60.0683133 L44.3033369,52.5496326 C44.3033369,52.5050805 44.3410296,52.4689698 44.3875337,52.4689698 L50.9276332,52.4689698 C53.7661744,52.4689698 56.0753855,50.2566828 56.0753855,47.5372831 L56.0753855,42.9566985 C58.6422452,38.6443645 60,33.7336251 60,28.740816 C60,12.8930749 46.5420576,0 30,0 Z M54.8522477,30.0745662 C54.176389,30.0745662 53.6284572,30.5994998 53.6284572,31.2469908 L53.6284572,47.5374394 C53.6284572,48.9638893 52.417231,50.124277 50.9282859,50.124277 L44.3881863,50.124277 C42.9920862,50.124277 41.8564086,51.212287 41.8564086,52.549789 L41.8564086,60.0684696 C41.8564086,60.1130217 41.8187158,60.1491324 41.7722118,60.1491324 L39.0720405,60.1491324 L39.0720405,58.8152259 C39.0720405,58.1677349 38.5241087,57.6428013 37.84825,57.6428013 C37.1723913,57.6428013 36.6244595,58.1677349 36.6244595,58.8152259 L36.6244595,60.1491324 L33.8400914,60.1491324 L33.8400914,58.8153822 C33.8400914,58.1678912 33.2921596,57.6429576 32.6163009,57.6429576 C31.9404422,57.6429576 31.3925104,58.1678912 31.3925104,58.8153822 L31.3925104,60.1491324 L28.6081423,60.1491324 L28.6081423,58.8153822 C28.6081423,58.1678912 28.0602105,57.6429576 27.3843518,57.6429576 C26.7084931,57.6429576 26.1605613,58.1678912 26.1605613,58.8153822 L26.1605613,60.1491324 L23.3761932,60.1491324 L23.3761932,58.8153822 C23.3761932,58.1678912 22.8282614,57.6429576 22.1524027,57.6429576 C21.476544,57.6429576 20.9286122,58.1678912 20.9286122,58.8153822 L20.9286122,60.1491324 L18.2284409,60.1491324 C18.1819369,60.1491324 18.1442441,60.1130217 18.1442441,60.0684696 L18.1442441,52.549789 C18.1442441,51.212287 17.0085665,50.124277 15.6124663,50.124277 L9.07236681,50.124277 C7.58342172,50.124277 6.37219548,48.9638893 6.37219548,47.5374394 L6.37219548,31.2469908 C6.37219548,30.5994998 5.82426369,30.0745662 5.14840499,30.0745662 C4.4725463,30.0745662 3.92461451,30.5994998 3.92461451,31.2469908 L3.92461451,37.2760669 C2.95227217,34.5430671 2.44823366,31.6573394 2.44823366,28.740816 C2.44758097,14.1860247 14.8075385,2.34484915 30,2.34484915 C45.1924615,2.34484915 57.552419,14.1860247 57.552419,28.740816 C57.552419,31.6571831 57.0483805,34.5429107 56.0760382,37.2759106 L56.0760382,31.2469908 C56.0760382,30.5994998 55.5281064,30.0745662 54.8522477,30.0745662 Z" id="Shape"></path>
                <path d="M27.1237488,31.8381984 C26.8349926,31.2663283 26.1099439,31.0236889 25.504576,31.29662 C24.8990462,31.569398 24.6423559,32.2543265 24.9312741,32.8261966 C26.128892,35.1976676 25.6150257,38.0365177 23.6528434,39.8902764 C21.089342,42.3117746 16.9184901,42.3119276 14.3548267,39.8902764 C13.1129966,38.7171624 12.4290832,37.1574472 12.4290832,35.4984425 C12.4290832,33.8394378 13.1129966,32.2798755 14.3548267,31.1067615 C16.317171,29.2531558 19.3223091,28.767724 21.8325291,29.8990722 C22.4380589,30.1720033 23.1629456,29.9293639 23.4518639,29.3574938 C23.7407821,28.7854707 23.4840918,28.1006952 22.878562,27.8277642 C19.4413421,26.2787581 15.3255531,26.94441 12.6371885,29.4840151 C10.936555,31.0903918 10,33.2264139 10,35.4982895 C10,37.7701651 10.936555,39.9061872 12.6371885,41.5127169 C14.3923991,43.1708036 16.6982385,44 19.0037541,44 C21.3094316,44 23.6152711,43.1709566 25.3704817,41.5127169 C28.0588463,38.9732648 28.7634893,35.0852212 27.1237488,31.8381984 Z" id="Path"></path>
                <path d="M49.1236273,31.8381694 C48.8350323,31.2663052 48.1099819,31.0238213 47.5046126,31.2967495 C46.8990813,31.5695248 46.6423905,32.2544463 46.9313094,32.8263105 C48.1289301,35.1979103 47.6152245,38.0367315 45.6528757,39.8903183 C43.0893682,42.3117918 38.9185064,42.3119448 36.354837,39.8903183 C35.113004,38.7172163 34.4290889,37.1575169 34.4290889,35.4985292 C34.4290889,33.8395414 35.113004,32.279995 36.354837,31.106893 C38.3171859,29.2531532 41.3223311,28.7678794 43.832557,29.899216 C44.4380883,30.1721443 45.1629767,29.9295074 45.4518956,29.3576431 C45.7408145,28.7856259 45.4841237,28.1008574 44.8785924,27.8279291 C41.4408786,26.2786328 37.3254037,26.9444309 34.6371947,29.4841631 C32.9365572,31.0905235 32,33.2265237 32,35.4983762 C32,37.7702287 32.9365572,39.9062289 34.6371947,41.5127423 C36.3927333,43.1711181 38.6979305,44 41.0037754,44 C43.3091344,44 45.6154652,43.1708121 47.370518,41.5127423 C50.0588889,38.9731631 50.7635336,35.0851591 49.1236273,31.8381694 Z" id="Path"></path>
            </g>
        </g>
    </g>
</svg>